<?xml version="1.0" encoding="UTF-8"?>
<svg width="155.73mm" height="65.306mm" version="1.1" viewBox="0 0 155.73 65.306" xmlns="http://www.w3.org/2000/svg"><g transform="translate(-32.867 -105.3)"><path d="m65.511 108.88-7.2498 0.1497-0.17132 0.0127c-2.5363 0.19142-4.1832 2.2532-4.201 4.5303l-6.14e-4 0.0579 0.13954 5.9336-2.8705 0.0683-0.40017-5.302c-0.19144-2.5363-2.3351-4.38-4.8714-4.1886l-7.1897 0.54256c-2.5363 0.19143-4.3788 2.3364-4.1873 4.8726l2.0873 27.659c0.19142 2.5363 2.3351 4.38 4.8714 4.1886l7.1897-0.54257c2.5363-0.19142 4.3788-2.3363 4.1873-4.8726l-0.53144-7.0423 2.0797-0.0594 0.13254 6.6233 0.0077 0.10171c0.16658 2.2072 1.9364 4.0059 4.132 4.216-0.15437 0.39752-0.27206 0.81066-0.35059 1.2326-0.77454 0.0352-1.5557 0.093-2.3069 0.15194-0.67738 0.0532-1.285 0.11556-1.7523 0.16655l-0.08486 0.0102-0.08455 0.0127c-0.74559 0.11651-1.4773 0.40741-2.1665 1.0451-0.19129 0.177-0.37548 0.39231-0.54162 0.63601-0.98542-1.2178-2.5838-1.6731-3.9286-1.4125l-0.0099 2e-3 -0.0095 2e-3c-1.5207 0.30268-3.2157 0.89327-4.7696 1.45-0.63964 0.22918-1.2087 0.44822-1.6461 0.62012l-0.07946 0.0312-0.07787 0.0356c-0.68887 0.30824-1.319 0.77965-1.8165 1.5759-0.49749 0.79626-0.77414 2.0495-0.46787 3.168l0.54416 2.074 0.06357 0.17736c0.28339 0.79095 0.80053 1.3894 1.4062 1.8585-0.19744 0.58033-0.31457 1.1808-0.21677 1.771l0.2991 2.1808 0.12523 0.34931c0.01246 0.0395 3.97e-4 0.0407 0.01462 0.0804 0.62406 1.7418 1.7164 2.1096 2.2857 2.347 0.56925 0.23736 0.97167 0.30871 1.369 0.36966 0.79461 0.12187 1.5446 0.13284 2.3845 0.095 1.6798-0.0756 3.6354-0.37736 5.6126-1.0858 0.47562-0.17041 0.89215-0.27373 1.6334-0.71548 0.01083-6e-3 0.02166-0.0128 0.03274-0.0194 0.4871 0.16918 0.98516 0.30067 1.5263 0.4221 1.1568 0.25956 2.4754 0.44718 3.8863 0.47772 0.14251 0.73583 0.53304 1.4912 0.92081 1.9341 0.35975 0.41096 0.66247 0.61122 0.65954 0.60741 4.2012 3.2792 9.3266 3.8577 12.718 0.88902 0.54684-0.47871 1.0215-1.0736 1.3903-1.7399l0.38587 1.1601 0.02034 0.0556c0.7619 2.0683 3.1247 3.1703 5.1167 2.6194l0.09726-0.0267 4.837-1.629c2.28e-4 -7e-5 4.07e-4 -2.4e-4 6.14e-4 -3.2e-4l0.04831-0.0162-0.03401 0.0105c1.1877-0.3912 2.0083-1.3743 2.4621-2.4754 0.94981 0.28293 1.951 0.57124 2.511 0.75012 0.71202 0.23453 1.5216 0.37955 2.5917 0.0836 1.666-0.46073 2.6829-2.0292 2.9903-2.8486l0.01525-0.0429 0.09122-0.26255c2.0945 1.8635 4.8627 2.9604 7.7193 2.9604 2.7355 0 5.489-0.91714 7.8795-2.7523 0.11181-0.0858 0.22285-0.17457 0.33279-0.26572 0.23838 2.1433 2.1893 3.7796 4.2217 3.7796h0.10203l5.09-0.28035c4.3e-4 -1e-5 6.1e-4 2e-5 2e-3 0l0.0553-3e-3 -0.0381 2e-3c1.2507-0.0592 2.3049-0.78846 3.0364-1.7297 0.84004 0.52586 1.728 1.0705 2.2202 1.3922 0.62386 0.41595 1.3658 0.7711 2.476 0.7711 1.7285 0 3.1262-1.2407 3.641-1.9484l0.0267-0.0372 1.4929-2.1655c2.0666 1.7482 4.7426 2.7707 7.5009 2.7707 2.7355 0 5.4889-0.91809 7.8795-2.7532 0.28874-0.22164 0.57199-0.46127 0.84645-0.7177 0.58078 1.9274 2.686 3.219 4.4022 3.0904l0.10171-8e-3 5.0872-0.66525-0.0413 5e-3c2.2044-0.25306 3.875-2.2501 3.708-4.4798l-0.0111-0.1497-0.11539-0.89475c2.0924 3.1926 5.7917 5.1965 9.6524 5.1965 2.7355 0 5.4899-0.91841 7.8804-2.7535 2.3905-1.8351 4.3885-4.8984 4.3885-8.6074 0-2.5388-0.85188-5.2157-2.7929-7.4637-0.19343-0.22403-0.39928-0.44194-0.61663-0.65255l3.9369-3.3746c2.5991-2.2278 2.9105-6.2769 0.68274-8.8759l-5.3599-6.2537c-1.0501-1.2251-2.5047-1.9416-4.0214-2.1236-8e-3 -0.11628-0.0166-0.23098-0.0254-0.34264-0.0319-0.39938 0.0927-0.69645-0.3989-1.8143-0.2156-0.49017-0.74992-1.1532-1.3871-1.6128-0.7389-1.9609-2.018-3.6077-3.5752-4.6486-1.6892-1.1291-3.5664-1.5313-5.432-1.6382-0.69112-1.7121-2.3989-2.6986-4.0971-2.5631l-3.1375 0.25046c-2.0565 0.16407-3.5431 1.9308-3.6979 3.8453-0.30091 0.1557-0.61717 0.30954-0.82862 0.5057-0.59071 0.54798-0.72202 0.88746-0.77334 0.97293l-0.0563 0.0925-1.4453 2.7631-0.0674 0.16782c-0.12458 0.30824-0.3699 0.99735-0.30005 1.8728 0.039 0.48931 0.23537 0.96394 0.50856 1.4039-0.17117 0.052-0.3432 0.1162-0.51587 0.19293l-0.18531 0.082-0.14557 0.0804c0.0834-0.0465-2.3683 1.2352-2.3683 1.2352l-0.0404 0.0219-0.0391 0.0216c-0.20476 0.11219-1.0408 0.41408-1.7145 1.7148-0.16148 0.31181-0.1294 0.63169-0.19198 0.95578-0.76375-0.10664-1.5601-0.0652-2.3441 0.2832l-0.0197 9e-3 -2.5647 1.177c-0.0506-0.11815-0.11972-0.26322-0.21519-0.44594-0.0201-0.0383-0.0649-0.0543-0.0861-0.0918 1.1208-1.2105 1.9508-2.7228 2.1413-4.3345 0.19616-1.6587-0.26514-3.1892-0.87885-4.3634-0.46136-0.88277-1.7965-3.301-4.7134-5.1803-2.9169-1.8792-7.7228-2.6625-12.597-0.11506-3.0686 1.6038-5.3641 3.7775-6.8207 6.2092-0.97705-1.2733-2.1566-2.3641-3.4862-3.2233-3.362-2.1727-7.561-2.9434-11.877-2.3527v-3.2e-4c-1.2934 0.17701-2.5826 0.54412-3.8752 0.95736l-3.88 0.31975-0.16782 0.0232c-1.1608 0.15888-2.0728 0.67568-2.7119 1.4001-0.40592-0.11846-0.80824-0.18533-1.184-0.21424l0.03592 2e-3 -6.3033-0.5467h-0.33756c-0.27348 0-0.64709 0.12345-0.98374 0.18721-1.5196-0.48478-3.1329-0.82641-4.8761-0.82641-4.0559 0-7.4517 1.7111-9.7214 4.0516l-0.18874-8.2889-0.0073-0.0957c-0.17323-2.2952-2.0289-4.3379-4.6584-4.2356zm74.575 25.148v3.1e-4l-3e-3 2e-3c2e-3 -6.2e-4 2e-3 -2e-3 3e-3 -2e-3zm-30.043 5.7769c0.16642 0.18344 0.33441 0.36202 0.50411 0.5343l-0.53875 0.0572c0.0229-0.19261 0.0347-0.39006 0.0346-0.59152zm56.824 1.9761 1.6299 1.9017c-0.89312 0.43025-1.7374 0.97619-2.5091 1.6458-0.0103 9e-3 -0.0206 0.0181-0.0308 0.027-0.13585-0.20806-0.29223-0.40726-0.47042-0.58898-0.77635-0.79172-1.7015-1.1119-2.3756-1.2387l-0.0696-0.014-0.0709-0.0105c-0.50021-0.0742-1.0134-0.12455-1.5374-0.1478 0.25704-0.29612 0.49763-0.61998 0.71707-0.97357 0.0219-0.0353 0.0432-0.0708 0.0642-0.1068zm-15.161 3.0774c0.0253 0.015 0.0508 0.0297 0.0763 0.0445-0.15769 0.0557-0.3095 0.12026-0.45549 0.19294zm-14.426 0.0648c-1.0019 0.44924-1.9471 1.0397-2.8028 1.7822-0.74736 0.64854-1.4054 1.4177-1.9538 2.2806l-0.72979-1.1872-2e-3 -2e-3c-0.50778-0.82513-1.5844-1.6505-2.6979-2.005zm13.381 0.58898c-0.25211 0.19431-0.47856 0.41606-0.67702 0.65858-0.11567-0.0874-0.23386-0.1729-0.35408-0.25651 0.22988-0.0603 0.45954-0.14071 0.68719-0.24187l0.30323-0.13477zm-25.098 0.6554c-0.21614 0.13729-0.40725 0.28201-0.64524 0.41162-0.0125 7e-3 -0.025 0.0161-0.0375 0.0229l-0.0187-0.36012zm-31.089 3.3012c-0.25269 0.39889-0.48205 0.81777-0.68592 1.2539-0.21794-0.32094-0.46376-0.59934-0.71008-0.82513l-0.0029-3e-3c-0.0022-2e-3 -0.0042-4e-3 -0.0063-5e-3l-0.26127-0.24316zm79.759 3.4534c0.54743 0 0.88997 0.60333 0.88997 0.78795 0 0.0884 0.0632-4.6e-4 -0.10679 0.2403-0.15576 0.22066-0.76432 0.47683-0.84962 0.51809-0.014-0.0548-0.87278-0.48869-0.98596-0.70785-0.0173-0.0334-0.0305-0.0578-0.0404-0.0754 0.0105-0.039 0.0471-0.11733 0.15447-0.25492 0.20221-0.25913 0.82901-0.50825 0.93829-0.50825zm-1.0963 0.78287c2e-3 3e-3 3e-3 5e-3 5e-3 6e-3l3.1e-4 3.2e-4h6.4e-4c-1.1e-4 2e-3 -4.7e-4 4e-3 -2e-3 5e-3l-6.4e-4 6.4e-4v3.2e-4h-3.1e-4l-3.2e-4 3.2e-4h-3.2e-4l-3.2e-4 -3.2e-4h-3.1e-4l-3.2e-4 -3.2e-4v-3.2e-4l-6.4e-4 -6.4e-4c-6.1e-4 -2e-3 -2e-3 -5e-3 -2e-3 -0.0109zm-30.413 0.59374c0.54744 0 0.89029 0.60458 0.89029 0.78922 0 0.0884 0.0619-2e-3 -0.10806 0.23902-0.15575 0.22064-0.76316 0.47791-0.84834 0.51937-0.0144-0.0549-0.87313-0.48875-0.98628-0.70786-0.0175-0.0339-0.0305-0.0587-0.0404-0.0763 0.0109-0.0394 0.0476-0.11799 0.15479-0.25523 0.20221-0.25913 0.8287-0.50824 0.93797-0.50824zm-38.039 0.46723c0.54743 0 0.89029 0.60492 0.89029 0.78955 0 0.0884 0.0619-2e-3 -0.10807 0.23902-0.15574 0.22063-0.76316 0.47759-0.84834 0.51905-0.0144-0.0549-0.87313-0.48875-0.98628-0.70785-0.0174-0.0337-0.0305-0.0584-0.0404-0.076 0.011-0.0393 0.048-0.1175 0.1548-0.25428 0.2022-0.25912 0.82869-0.50952 0.93797-0.50952zm36.942 0.31723c2e-3 2e-3 3e-3 5e-3 4e-3 6e-3h9.5e-4v-3.1e-4h3.2e-4c-8e-5 2e-3 -6.1e-4 5e-3 -2e-3 5e-3v3.1e-4l-3.2e-4 3.2e-4 -3.1e-4 3.2e-4h-3.2e-4l-3.2e-4 3.2e-4 -3.1e-4 -3.2e-4h-3.3e-4l-3.2e-4 -3.2e-4 -3.1e-4 -3.2e-4v-3.1e-4l-3.2e-4 -3.2e-4c-6.1e-4 -2e-3 -2e-3 -5e-3 -2e-3 -0.0105zm-38.039 0.46723c2e-3 2e-3 3e-3 5e-3 4e-3 6e-3h3.2e-4l3.2e-4 3.1e-4h3.2e-4v-6.3e-4h3.2e-4c-8e-5 2e-3 -7.8e-4 5e-3 -2e-3 5e-3v3.2e-4h-3.2e-4l-3.2e-4 3.2e-4h-9.5e-4v-3.2e-4h-3.2e-4l-3.2e-4 -3.2e-4v-3.3e-4c-7e-5 -1.4e-4 -5.6e-4 -6e-4 -6.1e-4 -2e-3 -6.8e-4 -2e-3 -7.8e-4 -5e-3 -6.2e-4 -0.0102zm-58.255 7.4946c-0.0523 0.0439-0.23487 0.0517-0.49934 0.0737 0.16588-0.0203 0.33312-0.0601 0.49934-0.0737z" fill="#d35f8d" stop-color="#000000" style="paint-order:markers stroke fill"/><path d="m63.883 105.3-7.2498 0.14971-0.17132 0.0127c-2.5363 0.19142-4.1832 2.2532-4.201 4.5303l-6.16e-4 0.0579 0.13954 5.9336-2.8705 0.0683-0.40017-5.302c-0.19144-2.5363-2.3351-4.3801-4.8714-4.1886l-7.1898 0.54257c-2.5363 0.19142-4.3788 2.3364-4.1873 4.8726l2.0873 27.659c0.19142 2.5363 2.3351 4.38 4.8714 4.1886l7.1898-0.54257c2.5363-0.19142 4.3788-2.3363 4.1873-4.8726l-0.53144-7.0423 2.0797-0.0594 0.13254 6.6233 0.0077 0.10171c0.16658 2.2072 1.9364 4.0059 4.132 4.216-0.15437 0.39753-0.27206 0.81066-0.35059 1.2326-0.77454 0.0351-1.5557 0.093-2.3069 0.15194-0.67738 0.0531-1.285 0.11555-1.7523 0.16654l-0.08487 0.0102-0.08455 0.0127c-0.74559 0.11651-1.4773 0.40741-2.1665 1.0451-0.19129 0.177-0.37548 0.39232-0.54162 0.63602-0.98542-1.2178-2.5838-1.6731-3.9286-1.4125l-0.0099 2e-3 -0.0095 2e-3c-1.5207 0.30267-3.2157 0.89326-4.7696 1.45-0.63964 0.22918-1.2087 0.44822-1.6461 0.62012l-0.07946 0.0312-0.07787 0.0356c-0.68887 0.30823-1.319 0.77963-1.8165 1.5759-0.49749 0.79627-0.77414 2.0495-0.46787 3.168l0.54416 2.074 0.06357 0.17736c0.28339 0.79095 0.80053 1.3894 1.4062 1.8585-0.19744 0.58032-0.31457 1.1808-0.21677 1.771l0.2991 2.1808 0.12523 0.34932c0.01246 0.0395 3.97e-4 0.0407 0.01462 0.0804 0.62406 1.7418 1.7164 2.1096 2.2857 2.347 0.56925 0.23737 0.97167 0.30872 1.369 0.36966 0.79461 0.12188 1.5446 0.13285 2.3845 0.095 1.6798-0.0756 3.6354-0.37737 5.6126-1.0858 0.47562-0.17041 0.89215-0.27372 1.6334-0.71548 0.01082-6e-3 0.02166-0.0128 0.03274-0.0194 0.4871 0.16918 0.98516 0.30068 1.5263 0.42211 1.1568 0.25955 2.4754 0.44718 3.8863 0.47773 0.14252 0.73582 0.53304 1.4911 0.92081 1.9341 0.35975 0.41095 0.66247 0.61121 0.65954 0.6074 4.2012 3.2792 9.3266 3.8577 12.718 0.88903 0.54684-0.47871 1.0215-1.0736 1.3903-1.7399l0.38587 1.1602 0.02034 0.0556c0.7619 2.0683 3.1247 3.1703 5.1167 2.6194l0.09726-0.0267 4.837-1.629c2.28e-4 -7e-5 4.08e-4 -2.5e-4 6.15e-4 -3.2e-4l0.04831-0.0162-0.034 0.0105c1.1877-0.3912 2.0083-1.3743 2.4621-2.4754 0.94982 0.28292 1.951 0.57123 2.511 0.75011 0.71202 0.23453 1.5216 0.37955 2.5917 0.0836 1.666-0.46073 2.6829-2.0292 2.9903-2.8486l0.01525-0.0429 0.09122-0.26255c2.0945 1.8635 4.8627 2.9604 7.7193 2.9604 2.7355 0 5.489-0.91714 7.8795-2.7522 0.11182-0.0858 0.22286-0.17458 0.33279-0.26573 0.23839 2.1433 2.1893 3.7796 4.2217 3.7796h0.10202l5.09-0.28035c4.3e-4 -1e-5 6.2e-4 2e-5 2e-3 0l0.0553-3e-3 -0.0381 2e-3c1.2507-0.0592 2.3048-0.78846 3.0364-1.7297 0.84004 0.52586 1.728 1.0705 2.2202 1.3922 0.62387 0.41596 1.3658 0.77111 2.476 0.77111 1.7285 0 3.1262-1.2407 3.641-1.9484l0.0267-0.0373 1.493-2.1655c2.0666 1.7482 4.7426 2.7707 7.5009 2.7707 2.7355 0 5.4889-0.9181 7.8795-2.7532 0.28873-0.22165 0.57198-0.46128 0.84643-0.7177 0.58079 1.9274 2.686 3.219 4.4022 3.0904l0.10172-8e-3 5.0872-0.66525-0.0413 5e-3c2.2044-0.25307 3.875-2.2501 3.708-4.4798l-0.0112-0.14971-0.11539-0.89474c2.0924 3.1926 5.7917 5.1965 9.6524 5.1965 2.7355 0 5.4899-0.91841 7.8804-2.7535 2.3905-1.8351 4.3885-4.8984 4.3885-8.6074 0-2.5389-0.85189-5.2157-2.7929-7.4637-0.19344-0.22402-0.39928-0.44193-0.61663-0.65255l3.9369-3.3746c2.5991-2.2278 2.9105-6.2769 0.68274-8.8759l-5.3599-6.2537c-1.0501-1.2251-2.5047-1.9415-4.0214-2.1235-8e-3 -0.11628-0.0166-0.23098-0.0254-0.34265-0.0319-0.39937 0.0927-0.69645-0.3989-1.8143-0.2156-0.49017-0.74992-1.1532-1.3871-1.6128-0.73891-1.961-2.018-3.6077-3.5752-4.6486-1.6892-1.1291-3.5664-1.5313-5.432-1.6382-0.69111-1.7121-2.3989-2.6986-4.0971-2.5631l-3.1375 0.25046c-2.0565 0.16407-3.5431 1.9308-3.6979 3.8454-0.30092 0.15569-0.61717 0.30953-0.82863 0.50569-0.59071 0.54799-0.72201 0.88746-0.77333 0.97294l-0.0563 0.0925-1.4453 2.7631-0.0674 0.16782c-0.12458 0.30823-0.3699 0.99734-0.30006 1.8728 0.0391 0.48931 0.23537 0.96394 0.50857 1.4039-0.17117 0.052-0.3432 0.11621-0.51587 0.19293l-0.18531 0.082-0.14558 0.0804c0.0834-0.0465-2.3683 1.2352-2.3683 1.2352l-0.0404 0.0219-0.0391 0.0216c-0.20476 0.1122-1.0408 0.41408-1.7145 1.7148-0.16148 0.3118-0.1294 0.63168-0.19198 0.95577-0.76375-0.10663-1.5601-0.0652-2.3441 0.28321l-0.0197 9e-3 -2.5647 1.177c-0.0506-0.11817-0.11972-0.26323-0.21519-0.44594-0.0201-0.0384-0.0649-0.0543-0.0861-0.0919 1.1208-1.2106 1.9508-2.7228 2.1414-4.3345 0.19615-1.6587-0.26514-3.1892-0.87885-4.3634-0.46136-0.88276-1.7965-3.301-4.7134-5.1803-2.9169-1.8792-7.7228-2.6625-12.597-0.11507-3.0686 1.6038-5.3641 3.7775-6.8207 6.2092-0.97705-1.2733-2.1566-2.3641-3.4862-3.2233-3.362-2.1727-7.561-2.9434-11.877-2.3527v-3.2e-4c-1.2934 0.17702-2.5826 0.54413-3.8752 0.95736l-3.88 0.31976-0.16782 0.0232c-1.1608 0.15887-2.0728 0.67567-2.7119 1.4001-0.40592-0.11847-0.80824-0.18533-1.184-0.21424l0.03592 2e-3 -6.3033-0.5467h-0.33756c-0.27348 0-0.64709 0.12345-0.98374 0.18721-1.5196-0.48478-3.1329-0.82641-4.8761-0.82641-4.0559 0-7.4517 1.7111-9.7214 4.0516l-0.18874-8.2889-0.0073-0.0957c-0.17349-2.2956-2.0292-4.3383-4.6587-4.236zm74.575 25.148v3.2e-4l-3e-3 2e-3c2e-3 -6.1e-4 2e-3 -2e-3 3e-3 -2e-3zm-47.244 15.614c-0.0051 6e-3 -0.01022 0.013-0.01525 0.0194l-0.01717-0.0159zm11.265 6.158c-0.0166 0.0166-0.0333 0.0332-0.0502 0.0496-3e-3 3e-3 -8e-3 8e-3 -0.0134 0.0124 0.0222-0.0269 0.0435-0.0601 0.0636-0.062zm-58.772 7.2447c-0.0523 0.0439-0.23487 0.0517-0.49934 0.0737 0.16588-0.0203 0.33312-0.0601 0.49934-0.0737z" fill="#fff" stop-color="#000000" style="paint-order:markers stroke fill"/><g transform="matrix(.61508 0 0 .61508 42.623 53.1)"><path d="m38.84 149.37 176.21-18.714" fill="none" stroke="#f59" stroke-linecap="square" stroke-width=".989" style="paint-order:markers stroke fill"/><g fill="#ac93a7" font-family="'FOT-Yuruka Std'" font-weight="900" stroke-linecap="square"><text transform="rotate(-23.96)" x="94.133545" y="200.19582" font-size="28.638px" letter-spacing="-.0039775px" stroke-width=".74339" text-align="center" style="line-height:0.8;paint-order:markers stroke fill">は</text><text transform="rotate(-4.5614)" x="171.97508" y="136.58286" font-size="31.395px" letter-spacing="-.0043604px" stroke-width=".81495" text-align="center" style="line-height:0.8;paint-order:markers stroke fill">ね</text><g font-size="22.127px" letter-spacing="-.0030731px" stroke-width=".57436"><text transform="rotate(-19.712)" x="-61.978699" y="162.8542" text-align="center" style="line-height:0.8;paint-order:markers stroke fill">こ</text><text transform="rotate(-4.4882)" x="-1.3144063" y="170.47211" text-align="center" style="line-height:0.8;paint-order:markers stroke fill">こ</text><text transform="rotate(48.801)" x="142.63763" y="90.711815" text-align="center" style="line-height:0.8;paint-order:markers stroke fill">ろ</text></g></g><g fill="#d40055" fill-rule="evenodd" font-family="'FOT-Yuruka Std'" font-size="57.742px" font-weight="900" letter-spacing="-.018044px" stroke-linecap="square" stroke-width="3.3725"><text transform="rotate(-4.3161)" x="-21.791149" y="138.65886" text-align="center" style="line-height:0.8;paint-order:markers stroke fill">H</text><text x="40.039322" y="136.43997" text-align="center" style="line-height:0.8;paint-order:markers stroke fill">a</text><text transform="rotate(-7.7933)" x="63.950253" y="146.73636" text-align="center" style="line-height:0.8;paint-order:markers stroke fill">n</text><text transform="rotate(-27.593)" x="53.066723" y="184.14517" text-align="center" style="line-height:0.8;paint-order:markers stroke fill">e</text></g><g fill="#ffaacc" font-family="'FOT-Yuruka Std'" font-size="41.018px" font-weight="900" letter-spacing="-.012818px" stroke-linecap="square" stroke-width="2.3957"><text transform="rotate(-15.459)" x="2.8816876" y="186.38834" text-align="center" style="line-height:0.8;paint-order:markers stroke fill">k</text><text x="83.529869" y="171.08644" text-align="center" style="line-height:0.8;paint-order:markers stroke fill">o</text><text x="112.48297" y="172.81627" text-align="center" style="line-height:0.8;paint-order:markers stroke fill">k</text><text x="145.37379" y="170.3261" text-align="center" style="line-height:0.8;paint-order:markers stroke fill">o</text></g><text transform="rotate(-4.2822)" x="161.9527" y="183.09499" fill="#dc143c" font-family="'FOT-Yuruka Std'" font-size="41.018px" font-weight="900" letter-spacing="-.012818px" stroke-linecap="square" stroke-width="2.3957" text-align="center" style="line-height:0.8;paint-order:markers stroke fill">r</text><text x="196.60342" y="168.08734" fill="#dc143c" font-family="'FOT-Yuruka Std'" font-size="41.018px" font-weight="900" letter-spacing="-.012818px" stroke-linecap="square" stroke-width="2.3957" text-align="center" style="line-height:0.8;paint-order:markers stroke fill">o</text><rect transform="rotate(-40.601)" x="67.319" y="228.22" width="21.858" height="21.858" rx="4.2333" ry="4.2333" fill="#d35f5f" style="paint-order:markers stroke fill"/><path transform="matrix(.1159 -.09007 .09007 .1159 -70.427 91.148)" d="m344.11 732.73c-5.616-14.256-16.56-20.448-27.648-20.448-16.128 0-32.256 12.96-32.256 33.552 0 37.584 49.248 43.92 60.192 81.792 10.8-37.584 60.192-44.208 60.192-81.792 0-20.592-16.704-33.552-32.832-33.552-11.232 0-22.176 6.192-27.216 20.448z" fill="#bc5fd3" stroke-linecap="square" stroke-width="3.738" style="paint-order:markers stroke fill;white-space:pre" aria-label="♥"/></g></g></svg>
